<?xml version="1.0" encoding="UTF-8" standalone="no"?>
<!-- Created with Inkscape (http://www.inkscape.org/) -->

<svg
   xmlns:dc="http://purl.org/dc/elements/1.1/"
   xmlns:cc="http://creativecommons.org/ns#"
   xmlns:rdf="http://www.w3.org/1999/02/22-rdf-syntax-ns#"
   xmlns:svg="http://www.w3.org/2000/svg"
   xmlns="http://www.w3.org/2000/svg"
   xmlns:sodipodi="http://sodipodi.sourceforge.net/DTD/sodipodi-0.dtd"
   xmlns:inkscape="http://www.inkscape.org/namespaces/inkscape"
   width="516.46667mm"
   height="344.3111mm"
   viewBox="0 0 1830.0001 1220"
   id="svg4139"
   version="1.1"
   inkscape:version="0.91 r13725"
   sodipodi:docname="GreekKeyPattern5.svg">
  <defs
     id="defs4141">
    <pattern
       patternUnits="userSpaceOnUse"
       width="609.99996"
       height="1219.9999"
       patternTransform="translate(-2490,-2222.6385)"
       id="pattern5049">
      <path
         inkscape:connector-curvature="0"
         id="path4715"
         d="m 189.99999,0 0,69.999993 -50,0 0,-29.999997 20,0 0,-9.999999 -30,0 0,49.999995 70,0 0,-79.999992 -10,0 z m 20,0 0,79.999992 189.99998,0 0,69.999988 -49.99999,0 0,-29.99999 20,0 0,-10 -30,0 0,49.99999 69.99999,0 0,-89.999987 -189.99998,0 0,-69.999993 -10,0 z m 59.99999,0 0,29.999997 -20,0 0,9.999999 30,0 0,-39.999996 -10,0 z m 20,0 0,49.999995 -50,0 0,-29.999997 20,0 0,-9.999999 -30,0 0,49.999995 70,0 0,-59.999994 -10,0 z m 20,0 0,59.999994 189.99999,0 0,69.999996 -50,0 0,-30 20,0 0,-9.999999 -30,0 0,49.999999 70,0 0,-89.999995 -189.99999,0 0,-49.999995 -10,0 z m 20,0 0,39.999996 69.99999,0 0,-39.999996 -10,0 0,29.999997 -49.99999,0 0,-29.999997 -10,0 z m 40,0 0,9.999999 -20,0 0,9.999999 29.99999,0 0,-19.999998 -9.99999,0 z m 39.99999,0 0,39.999996 189.99999,0 0,69.999994 -50,0 0,-29.999998 20,0 0,-9.999999 -30,0 0,49.999997 70,0 0,-89.999993 -189.99999,0 0,-29.999997 -10,0 z m 20,0 0,19.999998 70,0 0,-19.999998 -10,0 0,9.999999 -50,0 0,-9.999999 -10,0 z m 80,0 0,19.999998 99.99999,0 0,-9.999999 -89.99999,0 0,-9.999999 -10,0 z M 0,9.999999 l 0,9.999999 89.999994,0 0,69.999993 -49.999997,0 0,-29.999997 19.999999,0 0,-9.999999 -29.999998,0 0,49.999995 69.999995,0 0,-89.999991 -99.999993,0 z m 109.99999,0 0,89.999991 189.99999,0 0,69.99999 -50,0 0,-29.99999 20,0 0,-10 -30,0 0,49.99999 70,0 0,-89.999989 -189.99999,0 0,-69.999993 50,0 0,29.999997 -20,0 0,9.999999 30,0 0,-49.999995 -70,0 z m -99.9999907,19.999998 0,89.999993 189.9999907,0 0,69.99999 -50,0 0,-30 20,0 0,-10 -30,0 0,50 70,0 0,-89.99999 -189.999991,0 0,-69.999994 49.999996,0 0,29.999997 -19.999998,0 0,9.999999 29.999998,0 0,-49.999995 -69.9999957,0 z m 509.9999707,19.999998 0,89.999995 89.99999,0 0,-10 -80,0 0,-69.999996 50,0 0,29.999997 -20,0 0,9.999999 30,0 0,-49.999995 -69.99999,0 z m -100,19.999998 0,89.999987 189.99999,0 0,-10 -179.99999,0 0,-69.999988 50,0 0,29.999998 -20,0 0,10 30,0 0,-49.999997 -70,0 z m -99.99999,19.999998 0,89.999989 189.99999,0 0,69.99999 -50,0 0,-29.99999 20,0 0,-10 -30,0 0,49.99999 70,0 0,-89.99999 -189.99999,0 0,-69.99999 49.99999,0 0,30 -19.99999,0 0,10 29.99999,0 0,-49.999999 -69.99999,0 z m -99.99999,19.999999 0,89.99999 189.99998,0 0,69.99999 -49.99999,0 0,-29.99999 19.99999,0 0,-10 -29.99999,0 0,49.99999 69.99999,0 0,-89.99999 -189.99999,0 0,-69.99999 50,0 0,29.99999 -20,0 0,10 30,0 0,-49.99999 -69.99999,0 z m -219.99999,20 0,10 99.999993,0 0,69.99999 -49.999996,0 0,-30 19.999998,0 0,-10 -29.999998,0 0,50 69.999993,0 0,-89.99999 -109.99999,0 z m 119.99999,0 0,89.99999 189.99999,0 0,69.99999 -50,0 0,-30 20,0 0,-10 -30,0 0,50 70,0 0,-89.99999 -189.99999,0 0,-69.99999 50,0 0,29.99999 -20,0 0,10 30,0 0,-49.99999 -70,0 z M 0,149.99998 l 0,10 0,70 0,10 9.9999993,0 0,-90 -9.9999993,0 z m 19.999999,0 0,90 189.999991,0 0,69.99999 -50,0 0,-30 20,0 0,-10 -30,0 0,50 70,0 0,-89.99999 -189.999992,0 0,-70 49.999997,0 0,30 -19.999999,0 0,10 29.999998,0 0,-50 -69.999995,0 z m 509.999961,20 0,89.99999 80,0 0,-10 -70,0 0,-69.99999 50,0 0,30 -20,0 0,10 30,0 0,-50 -70,0 z m -99.99999,20 0,89.99999 179.99999,0 0,-10 -169.99999,0 0,-69.99999 50,0 0,30 -20,0 0,10 30,0 0,-50 -70,0 z m 119.99999,0 0,50 60,0 0,-10 -50,0 0,-30 20,0 0,-10 -30,0 z m -219.99998,20 0,89.99999 189.99999,0 0,69.99999 -50,0 0,-29.99999 20,0 0,-10 -30,0 0,49.99999 69.99999,0 0,-89.99999 -189.99998,0 0,-69.99999 49.99999,0 0,29.99999 -19.99999,0 0,10 29.99999,0 0,-49.99999 -69.99999,0 z m -100,20 0,89.99999 189.99999,0 0,69.99999 -49.99999,0 0,-30 19.99999,0 0,-10 -29.99999,0 0,50 69.99999,0 0,-89.99999 -189.99999,0 0,-69.99999 50,0 0,29.99999 -20,0 0,10 30,0 0,-49.99999 -70,0 z M 0,249.99997 l 0,10 109.99999,0 0,70 -49.999994,0 0,-30 19.999999,0 0,-10 -29.999998,0 0,50 69.999993,0 0,-90 -119.99999,0 z m 129.99999,0 0,90 189.99999,0 0,69.99999 -50,0 0,-30 20,0 0,-10 -30,0 0,50 70,0 0,-89.99999 -189.99999,0 0,-70 50,0 0,30 -20,0 0,10 30,0 0,-50 -70,0 z m -129.99999,20 0,10 9.9999993,0 0,69.99999 -9.9999993,0 0,10 19.999999,0 0,-89.99999 -19.999999,0 z m 29.999998,0 0,89.99999 189.999992,0 0,70 -50,0 0,-30 20,0 0,-10 -30,0 0,50 69.99999,0 0,-90 -189.999983,0 0,-69.99999 49.999997,0 0,30 -19.999999,0 0,10 29.999998,0 0,-50 -69.999995,0 z m 509.999962,20 0,89.99999 70,0 0,-10 -60,0 0,-69.99999 50,0 0,30 -20,0 0,10 30,0 0,-50 -70,0 z m -99.99999,20 0,89.99999 169.99999,0 0,-10 -159.99999,0 0,-69.99999 50,0 0,29.99999 -20,0 0,10 30,0 0,-49.99999 -70,0 z m 119.99999,0 0,49.99999 50,0 0,-10 -40,0 0,-29.99999 20,0 0,-10 -30,0 z m -219.99998,20 0,89.99999 189.99998,0 0,69.99999 -49.99999,0 0,-30 20,0 0,-10 -30,0 0,50 69.99999,0 0,-89.99999 -189.99998,0 0,-69.99999 49.99999,0 0,29.99999 -20,0 0,10 30,0 0,-49.99999 -69.99999,0 z m -100,19.99999 0,90 189.99999,0 0,69.99999 -50,0 0,-30 20,0 0,-10 -29.99999,0 0,50 69.99999,0 0,-89.99999 -189.99999,0 0,-70 50,0 0,30 -20,0 0,10 30,0 0,-50 -70,0 z m -239.99998,20 0,10 119.99999,0 0,69.99999 -49.999995,0 0,-29.99999 19.999999,0 0,-10 -29.999998,0 0,49.99999 69.999994,0 0,-89.99999 -129.99999,0 z m 139.99999,0 0,89.99999 189.99999,0 0,70 -50,0 0,-30 20,0 0,-10 -30,0 0,50 70,0 0,-90 -189.99999,0 0,-69.99999 50,0 0,30 -20,0 0,10 30,0 0,-50 -70,0 z m -139.99999,20 0,10 19.999999,0 0,69.99999 -19.999999,0 0,10 29.999998,0 0,-89.99999 -29.999998,0 z m 39.999997,0 0,89.99999 189.999983,0 0,69.99999 -49.99999,0 0,-29.99999 20,0 0,-10 -30,0 0,49.99999 69.99999,0 0,-89.99999 -189.999983,0 0,-69.99999 49.999996,0 0,30 -19.999998,0 0,10 29.999995,0 0,-50 -69.999993,0 z m -39.999997,20 0,10 0,29.99999 0,10 9.9999993,0 0,-49.99999 -9.9999993,0 z m 549.99996,0 0,89.99999 60,0 0,-10 -50,0 0,-69.99999 50,0 0,-10 -60,0 z m -99.99999,20 0,89.99999 159.99999,0 0,-10 -149.99999,0 0,-69.99999 50,0 0,29.99999 -20,0 0,10 30,0 0,-49.99999 -70,0 z m 119.99999,0 0,49.99999 40,0 0,-10 -30,0 0,-29.99999 20,0 0,-10 -30,0 z m -219.99998,19.99999 0,90 189.99998,0 0,69.99999 -49.99999,0 0,-30 20,0 0,-10 -30,0 0,50 69.99999,0 0,-89.99999 -189.99998,0 0,-70 49.99999,0 0,30 -20,0 0,10 30,0 0,-50 -69.99999,0 z m 239.99998,0 0,10 20,0 0,-10 -20,0 z m -339.99998,20 0,89.99999 189.99999,0 0,70 -50,0 0,-30 20,0 0,-10 -30,0 0,50 70,0 0,-90 -189.99999,0 0,-69.99999 50,0 0,30 -20,0 0,10 30,0 0,-50 -70,0 z m -249.99998,20 0,10 129.99999,0 0,69.99999 -49.999995,0 0,-29.99999 19.999998,0 0,-10 -29.999998,0 0,49.99999 69.999995,0 0,-89.99999 -139.99999,0 z m 149.99999,0 0,89.99999 189.99999,0 0,69.99999 -50,0 0,-29.99999 20,0 0,-10 -30,0 0,49.99999 70,0 0,-89.99999 -189.99999,0 0,-69.99999 50,0 0,30 -20,0 0,10 30,0 0,-50 -70,0 z m -149.99999,20 0,10 29.999998,0 0,69.99999 -29.999998,0 0,10 39.999997,0 0,-89.99999 -39.999997,0 z m 49.999997,0 0,89.99999 189.999983,0 0,69.99999 -49.99999,0 0,-29.99999 20,0 0,-10 -30,0 0,49.99999 69.99999,0 0,-89.99999 -189.999984,0 0,-69.99999 49.999994,0 0,29.99999 -19.999996,0 0,10 29.999996,0 0,-49.99999 -69.999993,0 z m -49.999997,20 0,10 9.9999993,0 0,29.99999 -9.9999993,0 0,10 19.999999,0 0,-49.99999 -19.999999,0 z m 559.99996,0 0,89.99999 50,0 0,-10 -40,0 0,-69.99999 40,0 0,-10 -50,0 z m -99.99999,19.99999 0,90 149.99999,0 0,-10 -139.99999,0 0,-70 50,0 0,30 -20,0 0,10 29.99999,0 0,-50 -69.99999,0 z m 119.99999,0 0,50 30,0 0,-10 -20,0 0,-30 20,0 0,-10 -30,0 z m -219.99998,20 0,89.99999 189.99998,0 0,70 -49.99999,0 0,-30 20,0 0,-10 -30,0 0,50 69.99999,0 0,-90 -189.99998,0 0,-69.99999 49.99999,0 0,30 -20,0 0,10 30,0 0,-50 -69.99999,0 z m 239.99998,0 0,10 10,0 0,-10 -10,0 z m -339.99998,20 0,89.99999 189.99999,0 0,69.99999 -50,0 0,-29.99999 20,0 0,-10 -30,0 0,49.99999 70,0 0,-89.99999 -189.99999,0 0,-69.99999 50,0 0,30 -20,0 0,10 30,0 0,-50 -70,0 z m -259.99998,20 0,10 139.99999,0 0,69.99999 -49.999996,0 0,-30 19.999996,0 0,-10 -29.999995,0 0,50 69.999995,0 0,-89.99999 -149.99999,0 z m 159.99999,0 0,89.99999 189.99999,0 0,69.99999 -50,0 0,-29.99999 20,0 0,-10 -30,0 0,49.99999 70,0 0,-89.99999 -189.99999,0 0,-69.99999 50,0 0,29.99999 -20,0 0,10 29.99999,0 0,-49.99999 -69.99999,0 z m -159.99999,20 0,10 39.999997,0 0,69.99999 -39.999997,0 0,10 49.999997,0 0,-89.99999 -49.999997,0 z m 59.999996,0 0,89.99999 189.999984,0 0,69.99999 -49.99999,0 0,-30 20,0 0,-10 -30,0 0,50 69.99999,0 0,-89.99999 -189.999985,0 0,-69.99999 49.999995,0 0,29.99999 -19.999997,0 0,10 29.999997,0 0,-49.99999 -69.999994,0 z M 0,649.99993 l 0,10 19.999999,0 0,30 -19.999999,0 0,10 29.999998,0 0,-50 -29.999998,0 z m 569.99996,0 0,90 40,0 0,-10 -30,0 0,-70 30,0 0,-10 -40,0 z m -569.99996,20 0,10 9.9999993,0 0,-10 -9.9999993,0 z m 469.99997,0 0,89.99999 139.99999,0 0,-10 -129.99999,0 0,-69.99999 49.99999,0 0,30 -19.99999,0 0,10 29.99999,0 0,-50 -69.99999,0 z m 119.99999,0 0,50 20,0 0,-10 -10,0 0,-30 10,0 0,-10 -20,0 z m -219.99998,20 0,89.99999 189.99998,0 0,69.99999 -49.99999,0 0,-29.99999 19.99999,0 0,-10 -29.99999,0 0,49.99999 69.99999,0 0,-89.99999 -189.99999,0 0,-69.99999 50,0 0,30 -20,0 0,10 30,0 0,-50 -69.99999,0 z m -100,20 0,89.99999 189.99999,0 0,69.99999 -50,0 0,-29.99999 20,0 0,-10 -30,0 0,49.99999 70,0 0,-89.99999 -189.99999,0 0,-69.99999 50,0 0,29.99999 -20,0 0,10 30,0 0,-49.99999 -70,0 z m -269.99998,20 0,10 149.99999,0 0,69.99999 -49.999997,0 0,-30 19.999997,0 0,-10 -29.999996,0 0,50 69.999996,0 0,-89.99999 -159.99999,0 z m 169.99999,0 0,89.99999 189.99999,0 0,69.99999 -50,0 0,-30 20,0 0,-10 -30,0 0,50 70,0 0,-89.99999 -189.99999,0 0,-69.99999 49.99999,0 0,29.99999 -19.99999,0 0,10 29.99999,0 0,-49.99999 -69.99999,0 z M 0,749.99992 l 0,10 49.999997,0 0,70 -49.999997,0 0,10 59.999996,0 0,-90 -59.999996,0 z m 69.999995,0 0,90 189.999985,0 0,69.99999 -49.99999,0 0,-30 19.99999,0 0,-10 -29.99999,0 0,50 69.99999,0 0,-89.99999 -189.999985,0 0,-70 49.999995,0 0,30 -20,0 0,10 30,0 0,-50 -69.999995,0 z m -69.999995,20 0,10 29.999998,0 0,30 -19.9999987,0 0,10 29.9999977,0 0,-50 -39.999997,0 z m 579.99996,0 0,89.99999 30,0 0,-10 -20,0 0,-69.99999 20,0 0,-10 -30,0 z m -579.99996,20 0,10 19.999999,0 0,-10 -19.999999,0 z m 479.99997,0 0,89.99999 129.99999,0 0,-10 -119.99999,0 0,-69.99999 49.99999,0 0,30 -19.99999,0 0,10 29.99999,0 0,-50 -69.99999,0 z m 119.99999,0 0,50 10,0 0,-10 0,-30 0,-10 -10,0 z m -219.99999,20 0,89.99999 189.99999,0 0,69.99999 -49.99999,0 0,-29.99999 19.99999,0 0,-10 -29.99999,0 0,49.99999 69.99999,0 0,-89.99999 -189.99999,0 0,-69.99999 50,0 0,29.99999 -20,0 0,10 30,0 0,-49.99999 -70,0 z m -99.99999,20 0,89.99999 189.99999,0 0,69.99999 -50,0 0,-30 20,0 0,-10 -30,0 0,50 70,0 0,-89.99999 -189.99999,0 0,-69.99999 50,0 0,29.99999 -20,0 0,10 30,0 0,-49.99999 -70,0 z M 0,849.99991 l 0,10 159.99999,0 0,70 -50,0 0,-30 20,0 0,-10 -29.999997,0 0,50 69.999997,0 0,-90 -169.99999,0 z m 179.99999,0 0,90 189.99999,0 0,69.99999 -50,0 0,-30 20,0 0,-10 -30,0 0,50 69.99999,0 0,-89.99999 -189.99998,0 0,-70 49.99999,0 0,30 -19.99999,0 0,10 29.99999,0 0,-50 -69.99999,0 z m -179.99999,20 0,10 59.999996,0 0,69.99999 -49.9999967,0 0,-29.99999 19.9999987,0 0,-10 -29.999998,0 0,49.99999 69.999995,0 0,-89.99999 -69.999995,0 z m 79.999995,0 0,89.99999 189.999985,0 0,70 -49.99999,0 0,-30 19.99999,0 0,-10 -29.99999,0 0,50 69.99999,0 0,-90 -189.999986,0 0,-69.99999 49.999996,0 0,30 -20,0 0,10 30,0 0,-50 -69.999995,0 z m -79.999995,20 0,10 39.999997,0 0,30 -19.999998,0 0,10 29.999998,0 0,-50 -49.999997,0 z m 589.99996,0 0,89.99999 20,0 0,-10 -10,0 0,-69.99999 10,0 0,-10 -20,0 z m -99.99999,20 0,89.99999 119.99999,0 0,-10 -109.99999,0 0,-69.99999 49.99999,0 0,29.99999 -20,0 0,10 30,0 0,-49.99999 -69.99999,0 z m -100,20 0,89.99999 189.99999,0 0,70 -50,0 0,-30 20,0 0,-10 -29.99999,0 0,50 69.99999,0 0,-90 -189.99999,0 0,-69.99999 50,0 0,29.99999 -20,0 0,10 30,0 0,-49.99999 -70,0 z m -99.99999,19.99999 0,90 189.99999,0 0,70 -50,0 0,-30 20,0 0,-10 -30,0 0,50 70,0 0,-90 -189.99999,0 0,-70 50,0 0,30 -20,0 0,10 30,0 0,-50 -70,0 z M 0,969.9999 l 0,10 169.99999,0 0,70 -50,0 0,-30 20,0 0,-10 -30,0 0,50 70,0 0,-90 -179.99999,0 z m 189.99999,0 0,90 189.99998,0 0,70 -49.99999,0 0,-30 20,0 0,-10 -30,0 0,50 69.99999,0 0,-90 -189.99998,0 0,-70 49.99999,0 0,30 -20,0 0,10 30,0 0,-50 -69.99999,0 z M 0,989.9999 l 0,10 69.999995,0 0,70 -49.999996,0 0,-30 19.999998,0 0,-10 -29.9999977,0 0,50 69.9999957,0 0,-90 -79.999995,0 z m 89.999994,0 0,90 189.999986,0 0,70 -50,0 0,-30 20,0 0,-10 -29.99999,0 0,50 69.99999,0 0,-90 -189.999987,0 0,-70 49.999997,0 0,30 -20,0 0,10 30,0 0,-50 -69.999996,0 z m -89.999994,20 0,10 49.999997,0 0,30 -19.999999,0 0,10 29.999998,0 0,-50 -59.999996,0 z m 599.99996,0 0,90 10,0 0,-10 0,-70 0,-10 -10,0 z m -99.99999,20 0,90 109.99999,0 0,-10 -99.99999,0 0,-70 49.99999,0 0,30 -20,0 0,10 30,0 0,-50 -69.99999,0 z m -100,20 0,90 189.99999,0 0,70 -50,0 0,-30 20,0 0,-10 -30,0 0,50 70,0 0,-90 -189.99999,0 0,-70 50,0 0,30 -20,0 0,10 30,0 0,-50 -70,0 z m -99.99999,20 0,90 189.99999,0 0,60 10,0 0,-70 -189.99999,0 0,-70 50,0 0,30 -20,0 0,10 30,0 0,-50 -70,0 z m -299.99998,20 0,10 179.99999,0 0,70 -50,0 0,-30 20,0 0,-10 -30,0 0,50 70,0 0,-90 -189.99999,0 z m 199.99999,0 0,90 189.99998,0 0,40 10,0 0,-50 -189.99998,0 0,-70 49.99999,0 0,30 -20,0 0,10 30,0 0,-50 -69.99999,0 z m -199.99999,20 0,10 79.999995,0 0,70 -49.999997,0 0,-30 19.999999,0 0,-10 -29.999998,0 0,50 69.999995,0 0,-90 -89.999994,0 z m 99.999993,0 0,90 189.999987,0 0,20 10,0 0,-30 -189.99999,0 0,-70 50,0 0,30 -20,0 0,10 30,0 0,-50 -69.999997,0 z m -99.999993,20 0,90 189.99999,0 10,0 0,-10 -189.9999907,0 0,-70 49.9999967,0 0,30 -19.999999,0 0,10 29.999998,0 0,-50 -69.999995,0 z m 509.99997,20 0,70 10,0 0,-60 49.99999,0 0,30 -20,0 0,10 30,0 0,-50 -69.99999,0 z m -100,20 0,50 10,0 0,-40 50,0 0,30 -20,0 0,10 30,0 0,-50 -70,0 z m -99.99999,20 0,30 10,0 0,-20 50,0 0,20 9.99999,0 0,-30 -69.99999,0 z m 119.99999,0 0,30 10,0 0,-20 20,0 0,-10 -30,0 z m -219.99998,20 0,10 10,0 49.99999,0 10,0 0,-10 -69.99999,0 z m 119.99999,0 0,10 10,0 20,0 0,-10 -30,0 z"
         style="fill:#000000;fill-opacity:1;fill-rule:evenodd;stroke:none;stroke-width:1px;stroke-linecap:butt;stroke-linejoin:miter;stroke-opacity:1" />
    </pattern>
  </defs>
  <sodipodi:namedview
     id="base"
     pagecolor="#ffffff"
     bordercolor="#666666"
     borderopacity="1.0"
     inkscape:pageopacity="0.0"
     inkscape:pageshadow="2"
     inkscape:zoom="0.43442625"
     inkscape:cx="915.00001"
     inkscape:cy="609.99997"
     inkscape:document-units="px"
     inkscape:current-layer="layer1"
     showgrid="true"
     inkscape:object-paths="true"
     inkscape:snap-intersection-paths="true"
     inkscape:object-nodes="true"
     inkscape:snap-smooth-nodes="true"
     fit-margin-top="0"
     fit-margin-left="0"
     fit-margin-right="0"
     fit-margin-bottom="0"
     inkscape:window-width="1366"
     inkscape:window-height="705"
     inkscape:window-x="-8"
     inkscape:window-y="-8"
     inkscape:window-maximized="1" />
  <metadata
     id="metadata4144">
    <rdf:RDF>
      <cc:Work
         rdf:about="">
        <dc:format>image/svg+xml</dc:format>
        <dc:type
           rdf:resource="http://purl.org/dc/dcmitype/StillImage" />
        <dc:title></dc:title>
      </cc:Work>
    </rdf:RDF>
  </metadata>
  <g
     inkscape:label="Layer 1"
     inkscape:groupmode="layer"
     id="layer1"
     transform="translate(2490,2222.6387)">
    <rect
       style="opacity:1;fill:url(#pattern5049);fill-opacity:1.0;stroke:none;stroke-width:1;stroke-miterlimit:4;stroke-dasharray:none;stroke-dashoffset:0;stroke-opacity:1"
       id="rect5047"
       width="1830"
       height="1220"
       x="-2490"
       y="-2222.6387" />
  </g>
</svg>
